<svg xmlns="http://www.w3.org/2000/svg" width="22" height="28" viewBox="0 0 22 28" style="image-rendering:pixelated">
  <!-- Pixel hand pointer cursor -->
  <!-- Index finger -->
  <rect x="8" y="0" width="2" height="2" fill="black"/>
  <rect x="10" y="0" width="2" height="2" fill="black"/>
  <rect x="6" y="2" width="2" height="2" fill="black"/>
  <rect x="8" y="2" width="2" height="2" fill="white"/>
  <rect x="10" y="2" width="2" height="2" fill="white"/>
  <rect x="12" y="2" width="2" height="2" fill="black"/>
  <rect x="6" y="4" width="2" height="2" fill="black"/>
  <rect x="8" y="4" width="2" height="2" fill="white"/>
  <rect x="10" y="4" width="2" height="2" fill="white"/>
  <rect x="12" y="4" width="2" height="2" fill="black"/>
  <rect x="6" y="6" width="2" height="2" fill="black"/>
  <rect x="8" y="6" width="2" height="2" fill="white"/>
  <rect x="10" y="6" width="2" height="2" fill="white"/>
  <rect x="12" y="6" width="2" height="2" fill="black"/>
  <rect x="6" y="8" width="2" height="2" fill="black"/>
  <rect x="8" y="8" width="2" height="2" fill="white"/>
  <rect x="10" y="8" width="2" height="2" fill="white"/>
  <rect x="12" y="8" width="2" height="2" fill="black"/>
  <!-- Extra fingers -->
  <rect x="12" y="8" width="2" height="2" fill="black"/>
  <rect x="14" y="8" width="2" height="2" fill="black"/>
  <rect x="16" y="8" width="2" height="2" fill="black"/>
  <rect x="6" y="10" width="2" height="2" fill="black"/>
  <rect x="8" y="10" width="2" height="2" fill="white"/>
  <rect x="10" y="10" width="2" height="2" fill="white"/>
  <rect x="12" y="10" width="2" height="2" fill="white"/>
  <rect x="14" y="10" width="2" height="2" fill="white"/>
  <rect x="16" y="10" width="2" height="2" fill="white"/>
  <rect x="18" y="10" width="2" height="2" fill="black"/>
  <!-- Palm -->
  <rect x="2" y="12" width="2" height="2" fill="black"/>
  <rect x="4" y="12" width="2" height="2" fill="black"/>
  <rect x="6" y="12" width="2" height="2" fill="black"/>
  <rect x="8" y="12" width="2" height="2" fill="white"/>
  <rect x="10" y="12" width="2" height="2" fill="white"/>
  <rect x="12" y="12" width="2" height="2" fill="white"/>
  <rect x="14" y="12" width="2" height="2" fill="white"/>
  <rect x="16" y="12" width="2" height="2" fill="white"/>
  <rect x="18" y="12" width="2" height="2" fill="black"/>
  <rect x="0" y="14" width="2" height="2" fill="black"/>
  <rect x="2" y="14" width="2" height="2" fill="white"/>
  <rect x="4" y="14" width="2" height="2" fill="white"/>
  <rect x="6" y="14" width="2" height="2" fill="white"/>
  <rect x="8" y="14" width="2" height="2" fill="white"/>
  <rect x="10" y="14" width="2" height="2" fill="white"/>
  <rect x="12" y="14" width="2" height="2" fill="white"/>
  <rect x="14" y="14" width="2" height="2" fill="white"/>
  <rect x="16" y="14" width="2" height="2" fill="white"/>
  <rect x="18" y="14" width="2" height="2" fill="black"/>
  <rect x="0" y="16" width="2" height="2" fill="black"/>
  <rect x="2" y="16" width="2" height="2" fill="white"/>
  <rect x="4" y="16" width="2" height="2" fill="white"/>
  <rect x="6" y="16" width="2" height="2" fill="white"/>
  <rect x="8" y="16" width="2" height="2" fill="white"/>
  <rect x="10" y="16" width="2" height="2" fill="white"/>
  <rect x="12" y="16" width="2" height="2" fill="white"/>
  <rect x="14" y="16" width="2" height="2" fill="white"/>
  <rect x="16" y="16" width="2" height="2" fill="white"/>
  <rect x="18" y="16" width="2" height="2" fill="black"/>
  <!-- Lower palm -->
  <rect x="2" y="18" width="2" height="2" fill="black"/>
  <rect x="4" y="18" width="2" height="2" fill="white"/>
  <rect x="6" y="18" width="2" height="2" fill="white"/>
  <rect x="8" y="18" width="2" height="2" fill="white"/>
  <rect x="10" y="18" width="2" height="2" fill="white"/>
  <rect x="12" y="18" width="2" height="2" fill="white"/>
  <rect x="14" y="18" width="2" height="2" fill="white"/>
  <rect x="16" y="18" width="2" height="2" fill="black"/>
  <rect x="2" y="20" width="2" height="2" fill="black"/>
  <rect x="4" y="20" width="2" height="2" fill="white"/>
  <rect x="6" y="20" width="2" height="2" fill="white"/>
  <rect x="8" y="20" width="2" height="2" fill="white"/>
  <rect x="10" y="20" width="2" height="2" fill="white"/>
  <rect x="12" y="20" width="2" height="2" fill="white"/>
  <rect x="14" y="20" width="2" height="2" fill="white"/>
  <rect x="16" y="20" width="2" height="2" fill="black"/>
  <!-- Bottom -->
  <rect x="4" y="22" width="2" height="2" fill="black"/>
  <rect x="6" y="22" width="2" height="2" fill="white"/>
  <rect x="8" y="22" width="2" height="2" fill="white"/>
  <rect x="10" y="22" width="2" height="2" fill="white"/>
  <rect x="12" y="22" width="2" height="2" fill="white"/>
  <rect x="14" y="22" width="2" height="2" fill="black"/>
  <rect x="4" y="24" width="2" height="2" fill="black"/>
  <rect x="6" y="24" width="2" height="2" fill="black"/>
  <rect x="8" y="24" width="2" height="2" fill="black"/>
  <rect x="10" y="24" width="2" height="2" fill="black"/>
  <rect x="12" y="24" width="2" height="2" fill="black"/>
  <rect x="14" y="24" width="2" height="2" fill="black"/>
</svg>
