<svg xmlns="http://www.w3.org/2000/svg" width="20" height="28" viewBox="0 0 20 28" style="image-rendering:pixelated">
  <!-- Black outline arrow cursor -->
  <rect x="0" y="0" width="2" height="2" fill="black"/>
  <rect x="0" y="2" width="2" height="2" fill="black"/>
  <rect x="0" y="4" width="2" height="2" fill="black"/>
  <rect x="0" y="6" width="2" height="2" fill="black"/>
  <rect x="0" y="8" width="2" height="2" fill="black"/>
  <rect x="0" y="10" width="2" height="2" fill="black"/>
  <rect x="0" y="12" width="2" height="2" fill="black"/>
  <rect x="0" y="14" width="2" height="2" fill="black"/>
  <rect x="0" y="16" width="2" height="2" fill="black"/>
  <rect x="0" y="18" width="2" height="2" fill="black"/>
  <rect x="0" y="20" width="2" height="2" fill="black"/>
  <!-- White fill -->
  <rect x="2" y="2" width="2" height="2" fill="white"/>
  <rect x="2" y="4" width="2" height="2" fill="white"/>
  <rect x="2" y="6" width="2" height="2" fill="white"/>
  <rect x="2" y="8" width="2" height="2" fill="white"/>
  <rect x="2" y="10" width="2" height="2" fill="white"/>
  <rect x="2" y="12" width="2" height="2" fill="white"/>
  <rect x="2" y="14" width="2" height="2" fill="white"/>
  <rect x="2" y="16" width="2" height="2" fill="white"/>
  <rect x="2" y="18" width="2" height="2" fill="white"/>
  <!-- Row outlines right side -->
  <rect x="4" y="4" width="2" height="2" fill="white"/>
  <rect x="4" y="6" width="2" height="2" fill="white"/>
  <rect x="4" y="8" width="2" height="2" fill="white"/>
  <rect x="4" y="10" width="2" height="2" fill="white"/>
  <rect x="4" y="12" width="2" height="2" fill="white"/>
  <rect x="4" y="14" width="2" height="2" fill="white"/>
  <rect x="4" y="16" width="2" height="2" fill="white"/>
  
  <rect x="6" y="6" width="2" height="2" fill="white"/>
  <rect x="6" y="8" width="2" height="2" fill="white"/>
  <rect x="6" y="10" width="2" height="2" fill="white"/>
  <rect x="6" y="12" width="2" height="2" fill="white"/>
  <rect x="6" y="14" width="2" height="2" fill="white"/>
  
  <rect x="8" y="8" width="2" height="2" fill="white"/>
  <rect x="8" y="10" width="2" height="2" fill="white"/>
  <rect x="8" y="12" width="2" height="2" fill="white"/>

  <rect x="10" y="10" width="2" height="2" fill="white"/>
  <rect x="10" y="12" width="2" height="2" fill="white"/>

  <rect x="12" y="12" width="2" height="2" fill="white"/>
  
  <!-- Right edge blacks -->
  <rect x="2" y="20" width="2" height="2" fill="black"/>
  <rect x="4" y="18" width="2" height="2" fill="black"/>
  <rect x="6" y="16" width="2" height="2" fill="black"/>
  <rect x="8" y="14" width="2" height="2" fill="black"/>
  <rect x="10" y="14" width="2" height="2" fill="black"/>
  <rect x="6" y="14" width="2" height="2" fill="white"/>
  <rect x="10" y="12" width="2" height="2" fill="white"/>
  <rect x="12" y="12" width="2" height="2" fill="black"/>
  <rect x="12" y="10" width="2" height="2" fill="black"/>
  <rect x="10" y="8" width="2" height="2" fill="black"/>
  <rect x="8" y="6" width="2" height="2" fill="black"/>
  <rect x="6" y="4" width="2" height="2" fill="black"/>
  <rect x="4" y="2" width="2" height="2" fill="black"/>
</svg>
